<svg xmlns="http://www.w3.org/2000/svg" viewBox="0 0 48 32" role="img" aria-label="Bandera de Arabia Saudita">
  <rect width="48" height="32" fill="#006C35"/>
  <g fill="#FFF">
    <rect x="8" y="8" width="4" height="2" rx="1"/>
    <rect x="13" y="7" width="5" height="2" rx="1"/>
    <rect x="19" y="8" width="4" height="2" rx="1"/>
    <rect x="24" y="7" width="6" height="2" rx="1"/>
    <rect x="31" y="8" width="4" height="2" rx="1"/>
    <rect x="10" y="12" width="5" height="2" rx="1"/>
    <rect x="16" y="11" width="4" height="2" rx="1"/>
    <rect x="21" y="12" width="6" height="2" rx="1"/>
    <rect x="28" y="11" width="5" height="2" rx="1"/>
    <rect x="34" y="12" width="3" height="2" rx="1"/>
    <path d="M11 21h19c1.6 0 2.7.9 3.2 2H14.5c-.6 0-1 .5-1 1.1v.4h22.7c-.4.8-1.2 1.5-2.6 1.5H12c-1.1 0-2-.9-2-2s.9-3 1-3Z"/>
    <circle cx="35.5" cy="24.5" r="1.3"/>
  </g>
</svg>
